# xmcd
#
# Track frame offsets:
# 182
# 22977
# 45825
# 64812
# 83480
# 103587
# 124515
# 142200
# 157850
# 180150
# 200657
#
# Disc length: 2913 seconds
#
#
# Revision: 2
# Processed by: cddbd v1.5.1PL0 Copyright (c) Steve Scherf et al.
# Submitted via: FreeRIP 2.92 
#
DISCID=800b5f0b
DTITLE=Joaquin Sabina - Fisica y Qu mica
DYEAR=1900
DGENRE=
TTITLE0=Y nos dieron las diez
TTITLE1=Conductores Suicidas
TTITLE2=Yo quiero ser una chica Almodovar
TTITLE3=A la orilla de la chimenea
TTITLE4=Todos menos tu
TTITLE5=La del pirata cojo
TTITLE6=La cancion de las noches perdidas
TTITLE7=Los cuentos que yo cuento
TTITLE8=Peor para el sol
TTITLE9=Amor se llama el juego
TTITLE10=Pastillas para no so ar
EXTD=
EXTT0=
EXTT1=
EXTT2=
EXTT3=
EXTT4=
EXTT5=
EXTT6=
EXTT7=
EXTT8=
EXTT9=
EXTT10=
PLAYORDER=
